<svg viewBox="0 0 110.71 110.71"><path d="M55.35 0a55.36 55.36 0 1055.36 55.35A55.41 55.41 0 0055.35 0zm0 108.56a53.21 53.21 0 1153.21-53.21 53.27 53.27 0 01-53.21 53.21zM55.35 5a50.33 50.33 0 1050.33 50.32A50.39 50.39 0 0055.35 5zm0 98.5a48.18 48.18 0 1148.18-48.18 48.23 48.23 0 01-48.18 48.21zm0-93.46a45.29 45.29 0 1045.29 45.28 45.33 45.33 0 00-45.29-45.25zm0 88.43A43.15 43.15 0 1198.5 55.35 43.19 43.19 0 0155.35 98.5zm0-83.4a40.26 40.26 0 1040.26 40.28A40.3 40.3 0 0055.35 15.1zm0 78.37a38.12 38.12 0 1138.12-38.09 38.16 38.16 0 01-38.12 38.12zm0-73.34a35.23 35.23 0 1035.23 35.25 35.26 35.26 0 00-35.23-35.22zm0 68.3a33.08 33.08 0 1133.08-33.05 33.12 33.12 0 01-33.08 33.08zm0-63.27a30.19 30.19 0 1030.2 30.19 30.23 30.23 0 00-30.2-30.16zm0 58.24A28 28 0 1183.4 55.35 28.08 28.08 0 0155.35 83.4zm0-53.2a25.16 25.16 0 1025.16 25.18A25.18 25.18 0 0055.35 30.2zm0 48.17a23 23 0 1123-23 23 23 0 01-23 23.03zm0-43.14a20.13 20.13 0 1020.13 20.15 20.15 20.15 0 00-20.13-20.12zm0 38.11a18 18 0 1118-18 18 18 0 01-18 18.03zm0-33.08a15.1 15.1 0 1015.1 15.09 15.11 15.11 0 00-15.1-15.06zm0 28A13 13 0 1168.3 55.35 13 13 0 0155.35 68.3z"/></svg>