<svg viewBox="0 0 49.27 52.79"><path d="M42.78 7h-6.66V1.81a1.73 1.73 0 10-3.45 0V7H16.6V1.81a1.73 1.73 0 10-3.45 0V7H6.49A6.68 6.68 0 000 13.82V46a6.68 6.68 0 006.49 6.82h36.29A6.68 6.68 0 0049.27 46V13.82A6.68 6.68 0 0042.78 7zm0 42.16H6.49a3.13 3.13 0 01-3-3.19V13.82a3.13 3.13 0 013-3.19h6.66v2.5a1.73 1.73 0 103.45 0v-2.5h16v2.5a1.73 1.73 0 103.45 0v-2.5h6.66a3.13 3.13 0 013 3.19V46h.06a3.13 3.13 0 01-2.99 3.16zM15.59 23.27H9.22a1.81 1.81 0 000 3.62h6.37a1.81 1.81 0 000-3.62zm0 16.88H9.22a1.82 1.82 0 000 3.63h6.37a1.82 1.82 0 000-3.63zm0-8.44H9.22a1.82 1.82 0 000 3.63h6.37a1.82 1.82 0 000-3.63zm12.26-8.44h-6.43a1.81 1.81 0 000 3.62h6.37a1.77 1.77 0 001.72-1.81 1.72 1.72 0 00-1.66-1.81zm0 16.88h-6.43a1.82 1.82 0 000 3.63h6.37A1.77 1.77 0 0029.51 42a1.73 1.73 0 00-1.66-1.85zm0-8.44h-6.43a1.82 1.82 0 000 3.63h6.37a1.77 1.77 0 001.72-1.82 1.72 1.72 0 00-1.66-1.81zm12.2-8.44h-6.37a1.81 1.81 0 000 3.62h6.37a1.81 1.81 0 000-3.62zm0 16.88h-6.37a1.82 1.82 0 000 3.63h6.37a1.82 1.82 0 000-3.63zm0-8.44h-6.37a1.82 1.82 0 000 3.63h6.37a1.82 1.82 0 000-3.63z"/></svg>