<svg viewBox="0 0 72.61 72.61"><path d="M21.78 0A21.73 21.73 0 000 21.78v29.05a21.73 21.73 0 0021.78 21.78h29a21.73 21.73 0 0021.83-21.78v-29A21.73 21.73 0 0050.82 0zm0 3.63h29A18.09 18.09 0 0169 21.78v29.05A18.09 18.09 0 0150.82 69h-29A18.09 18.09 0 013.63 50.83v-29a18 18 0 0118.15-18.2zm.09 35.22a3.27 3.27 0 010-6.54H32a1.82 1.82 0 001.81-1.82V20.33a3.27 3.27 0 016.54 0v10.16a1.82 1.82 0 001.81 1.82h10.21a3.27 3.27 0 110 6.54H42.29a1.82 1.82 0 00-1.81 1.81v10.17a3.27 3.27 0 01-6.54 0V40.66a1.81 1.81 0 00-1.81-1.81z"/></svg>