<svg viewBox="0 0 225.46 185.99"><path d="M17.05 8.52A8.53 8.53 0 118.52 0a8.53 8.53 0 018.53 8.52zm41.68 0A8.53 8.53 0 1150.21 0a8.53 8.53 0 018.52 8.52zm41.68 0A8.53 8.53 0 1191.89 0a8.53 8.53 0 018.52 8.52zm41.68 0A8.52 8.52 0 11133.57 0a8.52 8.52 0 018.52 8.52zm41.68 0A8.52 8.52 0 11175.25 0a8.52 8.52 0 018.52 8.52zm41.69 0A8.53 8.53 0 11216.93 0a8.53 8.53 0 018.53 8.52zM17.05 50.76a8.53 8.53 0 11-8.53-8.52 8.52 8.52 0 018.53 8.52zm41.68 0a8.53 8.53 0 11-8.52-8.52 8.52 8.52 0 018.52 8.52zm41.68 0a8.53 8.53 0 11-8.52-8.52 8.52 8.52 0 018.52 8.52zm41.68 0a8.52 8.52 0 11-8.52-8.52 8.51 8.51 0 018.52 8.52zm41.68 0a8.52 8.52 0 11-8.52-8.52 8.51 8.51 0 018.52 8.52zm41.69 0a8.53 8.53 0 11-8.53-8.52 8.52 8.52 0 018.53 8.52zM17.05 93a8.53 8.53 0 11-8.53-8.53A8.53 8.53 0 0117.05 93zm41.68 0a8.53 8.53 0 11-8.52-8.53A8.53 8.53 0 0158.73 93zm41.68 0a8.53 8.53 0 11-8.52-8.53 8.53 8.53 0 018.52 8.53zm41.68 0a8.52 8.52 0 11-8.52-8.53 8.52 8.52 0 018.52 8.53zm41.68 0a8.52 8.52 0 11-8.52-8.53 8.52 8.52 0 018.52 8.53zm41.69 0a8.53 8.53 0 11-8.53-8.53 8.53 8.53 0 018.53 8.53zM17.05 135.23a8.53 8.53 0 11-8.53-8.52 8.53 8.53 0 018.53 8.52zm41.68 0a8.53 8.53 0 11-8.52-8.52 8.53 8.53 0 018.52 8.52zm41.68 0a8.53 8.53 0 11-8.52-8.52 8.53 8.53 0 018.52 8.52zm41.68 0a8.52 8.52 0 11-8.52-8.52 8.52 8.52 0 018.52 8.52zm41.68 0a8.52 8.52 0 11-8.52-8.52 8.52 8.52 0 018.52 8.52zm41.69 0a8.53 8.53 0 11-8.53-8.52 8.53 8.53 0 018.53 8.52zM17.05 177.47A8.53 8.53 0 118.52 169a8.52 8.52 0 018.53 8.47zm41.68 0a8.53 8.53 0 11-8.52-8.47 8.52 8.52 0 018.52 8.47zm41.68 0a8.53 8.53 0 11-8.52-8.47 8.52 8.52 0 018.52 8.47zm41.68 0a8.52 8.52 0 11-8.52-8.52 8.51 8.51 0 018.52 8.52zm41.68 0a8.52 8.52 0 11-8.52-8.52 8.51 8.51 0 018.52 8.52zm41.69 0a8.53 8.53 0 11-8.53-8.52 8.52 8.52 0 018.53 8.52z"/></svg>