<svg viewBox="0 0 74.79 54.99"><path d="M7.52 39.17h17.29a1.51 1.51 0 000-3H7.52a1.51 1.51 0 000 3zm0 6.69H13a1.51 1.51 0 000-3H7.52a1.51 1.51 0 000 3zm39.22 1.67a6.09 6.09 0 003.43-1.07 6 6 0 003.45 1.07 6.2 6.2 0 000-12.39 6.24 6.24 0 00-3.46 1.07 6.08 6.08 0 00-3.42-1.07 6.2 6.2 0 000 12.39zm6.88-9.37a3.18 3.18 0 11-3.16 3.18 3.16 3.16 0 013.16-3.18zm-9.11.93a3.13 3.13 0 012.23-.93 3 3 0 011.41.35 6.23 6.23 0 000 5.66 3.07 3.07 0 01-1.41.35 3.18 3.18 0 01-2.23-5.43zM70.61 0H12.17A4.21 4.21 0 008 4.22V8H4.53A4.54 4.54 0 000 12.59v7.72a.07.07 0 000 .05.11.11 0 000 .05v8.83a.13.13 0 000 .1v21.09A4.54 4.54 0 004.53 55h57.76a4.55 4.55 0 004.53-4.56V47h3.79a4.14 4.14 0 003-1.23 4.24 4.24 0 001.22-3V4.22A4.2 4.2 0 0070.61 0zm-6.79 45.41v5A1.53 1.53 0 0162.29 52H4.53A1.54 1.54 0 013 50.43V30.79h60.82zm0-17.63H3v-5.92h60.82zm0-8.93H3v-6.26a1.54 1.54 0 011.53-1.54h57.76a1.53 1.53 0 011.53 1.54zm8 23.89a1.18 1.18 0 01-1.19 1.2h-3.81V12.59A4.55 4.55 0 0062.29 8H11V4.22A1.21 1.21 0 0112.17 3h58.44a1.2 1.2 0 011.19 1.22z"/></svg>