<svg viewBox="0 0 59.17 61.64"><path d="M59.11 4.75A5.44 5.44 0 0053.81 0H13.72a5.47 5.47 0 00-5.35 5.58v35.25c-.06.45-.46 2.08-3 2.08-2.22 0-2.62-1.41-2.67-1.54a1.35 1.35 0 00-1.7-1 1.43 1.43 0 00-.92 1.77 5.1 5.1 0 005.19 3.57h11.07v14.5a1.44 1.44 0 00.84 1.32 1.4 1.4 0 00.53.11 1.36 1.36 0 001-.4l5.27-5.35 5.93 5.4a1.32 1.32 0 001.79 0l6.06-5.42 5.51 5.38a1.32 1.32 0 001.83 0l6-5.44 5.85 5.43a1.33 1.33 0 001.47.23 1.42 1.42 0 00.81-1.3v-55a1.84 1.84 0 00-.12-.42zM16.34 42.9h-5.82a5.09 5.09 0 00.58-2V5.58a2.62 2.62 0 115.24 0zM56.43 57L52 52.88a1.33 1.33 0 00-1.81 0l-5.99 5.41-5.5-5.38a1.32 1.32 0 00-1.83 0l-6.09 5.46-6-5.45a1.32 1.32 0 00-1.85 0l-3.86 3.91V5.16a1.32 1.32 0 00-.07-.39 5.85 5.85 0 00-.62-1.92h35.43a2.67 2.67 0 012.62 2.73zM39.94 10.52a1.37 1.37 0 10-2.74 0v.19h-.12a4.43 4.43 0 00-4.59 4.23v.15c0 1.36.86 2.52 2.55 3.45a1.74 1.74 0 00.36.13h.15l1.65.35v3.11h-.12c-1 0-1.86-.63-1.86-1.38a1.37 1.37 0 10-2.73 0A4.43 4.43 0 0037.08 25h.12v.32a1.37 1.37 0 102.74 0V25a4.39 4.39 0 004.31-4.22v-.15c0-.94-.45-2.31-2.6-3.48l-.12-.05-.17-.06h-.08l-1.3-.28v-3.17c.88.1 1.58.67 1.58 1.35a1.37 1.37 0 102.74 0 4.39 4.39 0 00-4.32-4.21zm-2.74 5.63l-1.05-.23c-.76-.44-.92-.78-.92-.83v-.15c0-.74.84-1.37 1.85-1.37h.12zm3.34 3.62c.75.45 1 .8 1 .87v.15a1.61 1.61 0 01-1.58 1.36v-2.5zm5.14-11a1.47 1.47 0 00-.07 2 10.82 10.82 0 012.37 10 10.42 10.42 0 01-4.72 6.4 9.68 9.68 0 01-7.69 1 10.62 10.62 0 01-7.14-12.93 10.12 10.12 0 0112.42-7.46 1.35 1.35 0 001.67-1 1.43 1.43 0 00-1-1.75 12.84 12.84 0 00-15.77 9.45 13.48 13.48 0 009.07 16.43 12.13 12.13 0 003.37.47 12.35 12.35 0 006.39-1.79 13.26 13.26 0 006-8.13 13.72 13.72 0 00-3-12.63 1.32 1.32 0 00-1.9-.07zM29.07 37.26h10.48a1.43 1.43 0 000-2.85H29.07a1.43 1.43 0 000 2.85zm17.1 0a1.43 1.43 0 000-2.85H44a1.43 1.43 0 000 2.85zm-17.1 5.56h3.16a1.43 1.43 0 000-2.86h-3.16a1.43 1.43 0 000 2.86zM49 40H37.58a1.43 1.43 0 000 2.86H49A1.43 1.43 0 0049 40zm-8.36 6H29.35a1.43 1.43 0 000 2.85h11.27a1.43 1.43 0 000-2.85zM48 46h-2.93a1.43 1.43 0 000 2.85H48A1.43 1.43 0 0048 46z"/></svg>