<svg viewBox="0 0 59.23 61.2"><path d="M59 40.77l-2.2-6.66-.94.08a3 3 0 01-3.11-2.12l-.11-.33a3.21 3.21 0 011.24-3.64l.79-.52L52.52 21a5.25 5.25 0 00-.89-1.65 4.7 4.7 0 000-1.3 5.2 5.2 0 00-1.8-3.53L44.64 10l-.76.57a2.93 2.93 0 01-3.72-.1l-.26-.22a3.21 3.21 0 01-.8-3.77l.41-.88-5.19-4.41a4.93 4.93 0 00-7.1.7L23 7.15l.34 3.61a.63.63 0 01-.55.68l-3.48.34L1.15 34.56a5.35 5.35 0 00.68 7.35L7 46.35l.74-.49a2.93 2.93 0 011.66-.49 3.17 3.17 0 01.73 1.21l.11.32a3.23 3.23 0 01-1.09 3.53l-.69.57 2.17 6.66a5.08 5.08 0 004.79 3.56 4.73 4.73 0 001.6-.28l27-9.43 1.55-3.25a.61.61 0 01.35-.31.58.58 0 01.46 0l3.14 1.61 6.24-2.18A5.28 5.28 0 0059 40.77zM7.26 43.3L3.37 40A2.8 2.8 0 013 36.15l17.53-22 2.47-.21a3 3 0 001.59-.67 1.27 1.27 0 00.42 1.14l2.34 2a1.17 1.17 0 001.7-.17 1.28 1.28 0 00-.16-1.76l-2.33-2a1.17 1.17 0 00-1.17-.21 3.32 3.32 0 00.34-1.75L25.53 8l3.56-4.46a2.56 2.56 0 013.69-.36l3.8 3.25a5.73 5.73 0 001.78 5.83l.25.22a5.29 5.29 0 005.88.71l3.84 3.29a2.68 2.68 0 01.93 1.84 2.74 2.74 0 01-.58 2l-3.56 4.46-2.48.22a3 3 0 00-2 1.12 3.2 3.2 0 00-.68 2.29l.19 2.59-17.54 22a2.59 2.59 0 01-1.77 1 2.55 2.55 0 01-1.92-.61L15 49.91a5.71 5.71 0 00-1.85-5.55l-.25-.22a5.3 5.3 0 00-5.64-.84zM55 45l-5.3 1.85-2.2-1.14a3 3 0 00-2.31-.16 3.05 3.05 0 00-1.75 1.58l-1.11 2.31-26.08 9.11a2.6 2.6 0 01-3.32-1.71l-1.63-5a5.62 5.62 0 001-1.5l-.16.4 5.24 4.49a4.94 4.94 0 003.2 1.19h.49a5 5 0 003.41-1.86l5.33-6.68 8.4-2.93-.78-2.38-4.7 1.64 7.62-9.54.86 2.62a1.21 1.21 0 001.14.85 1.32 1.32 0 00.39-.06 1.27 1.27 0 00.76-1.59l-1-3a1.22 1.22 0 00-.67-.75l.79-1-.33-3.61a.66.66 0 01.14-.46.61.61 0 01.41-.22l3.48-.35 4-5 1.46 4.5a5.78 5.78 0 00-1.46 5.93l.11.33a5.47 5.47 0 004.63 3.81l1.59 4.89A2.73 2.73 0 0155 45zm-10.18-4.4a1.19 1.19 0 00-1.53-.79 1.27 1.27 0 00-.76 1.59l1 3a1.21 1.21 0 001.14.85 1.07 1.07 0 00.39-.07 1.27 1.27 0 00.76-1.59zM33 21.2a1.22 1.22 0 00.78.29 1.2 1.2 0 00.93-.46 1.29 1.29 0 00-.16-1.76l-2.34-2a1.17 1.17 0 00-1.7.17 1.28 1.28 0 00.16 1.76zm5.58 4.8a1.18 1.18 0 001.71-.17 1.29 1.29 0 00-.16-1.76l-2.34-2a1.18 1.18 0 00-1.7.17 1.28 1.28 0 00.16 1.76zM25 21.39l-1.87-1.6L12 33.81l1.87 1.6zm-2.8 9.38l-5.61 7 1.86 1.6 5.61-7zm.9 12.6l11.19-14-1.86-1.59-11.19 14z"/></svg>