<svg xmlns="http://www.w3.org/2000/svg" xmlns:xlink="http://www.w3.org/1999/xlink" viewBox="0 0 197.65 206.24"><defs><style>.cls-1{fill:url(#Gradiente_sem_nome_9);}.cls-2{fill:url(#Gradiente_sem_nome_6);}.cls-3{fill:url(#Gradiente_sem_nome_6-2);}.cls-4{fill:url(#Gradiente_sem_nome_9-2);}.cls-5{fill:url(#Gradiente_sem_nome_6-3);}</style><linearGradient id="Gradiente_sem_nome_9" y1="66.57" x2="116.42" y2="66.57" gradientUnits="userSpaceOnUse"><stop offset="0" stop-color="#e85f25"/><stop offset="0" stop-color="#ea562e"/><stop offset="0" stop-color="#f13e48"/><stop offset="0" stop-color="#fb1771"/><stop offset="0" stop-color="#ff0782"/><stop offset="1" stop-color="#ea562f"/></linearGradient><linearGradient id="Gradiente_sem_nome_6" x1="87.79" y1="151.41" x2="197.65" y2="151.41" gradientUnits="userSpaceOnUse"><stop offset="0" stop-color="#e85f25"/><stop offset="0.18" stop-color="#ea562e"/><stop offset="0.48" stop-color="#f13e48"/><stop offset="0.85" stop-color="#fb1771"/><stop offset="0.99" stop-color="#ff0782"/></linearGradient><linearGradient id="Gradiente_sem_nome_6-2" x1="14.1" y1="100.75" x2="184.82" y2="100.75" xlink:href="#Gradiente_sem_nome_6"/><linearGradient id="Gradiente_sem_nome_9-2" x1="73.41" y1="136.87" x2="185.47" y2="136.87" xlink:href="#Gradiente_sem_nome_9"/><linearGradient id="Gradiente_sem_nome_6-3" x1="2.27" y1="30.47" x2="69.6" y2="30.47" xlink:href="#Gradiente_sem_nome_6"/></defs><g id="Camada_2" data-name="Camada 2"><g id="Camada_1-2" data-name="Camada 1"><g id="video-container"><path id="video-5" class="cls-1" d="M0,106.46c.19-.67.4-1.34.56-2a16.76,16.76,0,0,1,4.45-8Q46.53,54.78,88.1,13.18c5-5,11.19-6.28,17.78-3.69s10.19,7.89,10.52,15c.23,5-1.8,9.21-5.36,12.78q-34,34-67.9,68.09Q36.08,112.46,29,119.55c-4.83,4.87-10.62,6.62-17.15,4.58S1.55,117.54.36,110.83A3.5,3.5,0,0,0,0,110Z"/><path id="video-4" class="cls-2" d="M91.56,206.24c-.41-.23-.81-.46-1.22-.67a4.52,4.52,0,0,1-1.48-7A13.48,13.48,0,0,1,90,197.43Q139.54,148,189.11,98.57c1.48-1.47,3.07-2.44,5.25-1.76a4.4,4.4,0,0,1,3.19,3.52c.4,1.88-.45,3.32-1.75,4.61q-12,11.91-23.94,23.85Q134.62,165.89,97.34,203A38.38,38.38,0,0,1,93,206.24Z"/><path id="video-3" class="cls-3" d="M184.82,44.85c-.21,8.61-2.84,15.73-8.59,21.48Q120.68,121.94,65,177.42c-8.49,8.44-19,10.76-30.35,7s-18.23-12-20.16-23.76c-1.65-10.1,1.48-18.92,8.77-26.2l99.23-99.27c3.58-3.58,7.12-7.2,10.75-10.73,8.71-8.46,19-11.26,30.57-7.6S182,28.67,184.35,40.41C184.67,42,184.7,43.72,184.82,44.85Z"/><path id="video-2" class="cls-4" d="M82.25,192.88a9.33,9.33,0,0,1-6.69-15.17,12.09,12.09,0,0,1,1.09-1.18q46.21-46.18,92.42-92.37c4.5-4.49,10.76-4.37,14.38.24a9.18,9.18,0,0,1-.66,12.22c-2,2.07-4,4.06-6.06,6.08q-43.08,43.11-86.16,86.24C88.34,191.18,86,192.88,82.25,192.88Z"/><path id="video-1" class="cls-5" d="M20.28,53.64a27.44,27.44,0,0,1,2.43-4.35c1.5-1.83,3.35-3.38,5-5.1,2.79-2.91,2.84-6.91.15-9.59s-6.7-2.61-9.6.17c-1.46,1.4-2.85,2.88-4.32,4.28C11,41.82,7.31,41.7,4.42,38.76s-2.9-6.54-.06-9.35Q18.21,15.69,32.12,2C35-.78,38.74-.65,41.64,2.26s2.93,6.59.07,9.51c-2.54,2.6-5.15,5.14-7.71,7.72a6.4,6.4,0,0,0-1.72,6.88,6.41,6.41,0,0,0,5.47,4.54,6.7,6.7,0,0,0,5.94-2.25c4.76-4.77,9.5-9.54,14.3-14.28a6.3,6.3,0,0,1,8-.92c2.93,1.86,4.28,5,3.24,7.94a7.61,7.61,0,0,1-1.8,2.81Q49.93,41.6,32.33,58.88a6,6,0,0,1-7.2,1.4C22.51,59,20.78,57,20.72,53.91Z"/></g></g></g></svg>