<!-- SVG Sprite -->
<svg id="svg-sprite" class="svg-sprites">
    <!-- Gradients -->
    <defs>
        <!-- Horizontais -->
        <linearGradient id="color1_h" x1="0%" y1="0%" x2="100%" y2="0%"><stop offset="0%" stop-color="@bg(1)" /><stop offset="100%" stop-color="@bg(1:hover)" /></linearGradient>
        <linearGradient id="color2_h" x1="0%" y1="0%" x2="100%" y2="0%"><stop offset="0%" stop-color="@bg(2)" /><stop offset="100%" stop-color="@bg(2:hover)" /></linearGradient>
        <linearGradient id="color3_h" x1="0%" y1="0%" x2="100%" y2="0%"><stop offset="0%" stop-color="@bg(3)" /><stop offset="100%" stop-color="@bg(3:hover)" /></linearGradient>
        <linearGradient id="button_h" x1="0%" y1="0%" x2="100%" y2="0%"><stop offset="0%" stop-color="@button(bg)" /><stop offset="100%" stop-color="@button(bg:hover)" /></linearGradient>
        <linearGradient id="timer__gradient" x1="0%" y1="0%" x2="100%" y2="0%"><stop offset="0%" stop-color="@bg(1)" /><stop offset="100%" stop-color="@bg(2)" /></linearGradient>
        <linearGradient id="primary-gradient" x1="0%" y1="0%" x2="100%" y2="0%"><stop offset="0%" stop-color="var(--primary)" /><stop offset="100%" stop-color="var(--secundary)" /></linearGradient>
        <linearGradient id="secundary-gradient" x1="0%" y1="0%" x2="100%" y2="0%"><stop offset="0%" stop-color="var(--secundary)" /><stop offset="100%" stop-color="var(--primary)" /></linearGradient>
        <!-- Verticais -->
        <linearGradient id="color1_v" x1="0%" y1="0%" x2="0%" y2="100%"><stop offset="0%" stop-color="@bg(1)" /><stop offset="100%" stop-color="@bg(1:hover)" /></linearGradient>
        <linearGradient id="color2_v" x1="0%" y1="0%" x2="0%" y2="100%"><stop offset="0%" stop-color="@bg(2)" /><stop offset="100%" stop-color="@bg(2:hover)" /></linearGradient>
        <linearGradient id="color3_v" x1="0%" y1="0%" x2="0%" y2="100%"><stop offset="0%" stop-color="@bg(3)" /><stop offset="100%" stop-color="@bg(3:hover)" /></linearGradient>
        <linearGradient id="button_v" x1="0%" y1="0%" x2="0%" y2="100%"><stop offset="0%" stop-color="@button(bg)" /><stop offset="100%" stop-color="@button(bg:hover)" /></linearGradient>
        
    </defs>
    <!--
	Ícones Obrigatórios
	* É possível alterá-los, porém não altere o ID
	-->
    <symbol id="i-play" 		viewBox="0 0 16 16"><path d="M2.9,1C1.3,0.2,0,0.9,0,2.4v11.2c0,1.5,1.3,2.1,2.9,1.4l11.9-5.6c1.6-0.8,1.6-2,0-2.7L2.9,1z"/></symbol>
    <symbol id="i-list" 		viewBox="0 0 16 16"><path d="M14.4,3.2H1.6C0.7,3.2,0,2.5,0,1.6v0C0,0.7,0.7,0,1.6,0l12.8,0C15.3,0,16,0.7,16,1.6v0 C16,2.5,15.3,3.2,14.4,3.2z M16,14.4L16,14.4c0-0.9-0.7-1.6-1.6-1.6H1.6c-0.9,0-1.6,0.7-1.6,1.6v0C0,15.3,0.7,16,1.6,16h12.8 C15.3,16,16,15.3,16,14.4z M16,8L16,8c0-0.9-0.7-1.6-1.6-1.6H1.6C0.7,6.4,0,7.1,0,8v0c0,0.9,0.7,1.6,1.6,1.6h12.8 C15.3,9.6,16,8.9,16,8z"/></symbol>
    <symbol id="i-grid" 		viewBox="0 0 16 16"><path d="M3.2,1.6c0,0.9-0.7,1.6-1.6,1.6S0,2.5,0,1.6S0.7,0,1.6,0S3.2,0.7,3.2,1.6z M8,0 C7.1,0,6.4,0.7,6.4,1.6S7.1,3.2,8,3.2s1.6-0.7,1.6-1.6S8.9,0,8,0z M14.4,0c-0.9,0-1.6,0.7-1.6,1.6s0.7,1.6,1.6,1.6S16,2.5,16,1.6 S15.3,0,14.4,0z M1.6,6.4C0.7,6.4,0,7.1,0,8s0.7,1.6,1.6,1.6S3.2,8.9,3.2,8S2.5,6.4,1.6,6.4z M8,6.4C7.1,6.4,6.4,7.1,6.4,8 S7.1,9.6,8,9.6S9.6,8.9,9.6,8S8.9,6.4,8,6.4z M14.4,6.4c-0.9,0-1.6,0.7-1.6,1.6s0.7,1.6,1.6,1.6S16,8.9,16,8S15.3,6.4,14.4,6.4z M1.6,12.8c-0.9,0-1.6,0.7-1.6,1.6S0.7,16,1.6,16s1.6-0.7,1.6-1.6S2.5,12.8,1.6,12.8z M8,12.8c-0.9,0-1.6,0.7-1.6,1.6S7.1,16,8,16 s1.6-0.7,1.6-1.6S8.9,12.8,8,12.8z M14.4,12.8c-0.9,0-1.6,0.7-1.6,1.6s0.7,1.6,1.6,1.6s1.6-0.7,1.6-1.6S15.3,12.8,14.4,12.8z"/></symbol>
    <symbol id="i-success"      viewBox="0 0 16 16"><path d="M8,0C3.6,0,0,3.6,0,8c0,4.4,3.6,8,8,8c4.4,0,8-3.6,8-8S12.4,0,8,0z M7.4,12.7l-1-0.7l0,0L2.9,9.5l0.7-1 L7.1,11l4.7-6.5l1,0.7L7.4,12.7z"/></symbol>
    <symbol id="img-truck" 		viewBox="0 0 16 16"><path d="M1.1,12L8,16l6.9-4V4L8,0L1.1,4V12z M7.5,14.6l-2.3-1.3V7l2.3,1.3V14.6z M14,11.5l-5.5,3.2V8.3 L14,5.1V11.5z M13.5,4.3L8,7.5L5.7,6.1l5.3-3.4L13.5,4.3z M8,1.1l2,1.2L4.8,5.6L2.5,4.3L8,1.1z M2,5.1l2.3,1.3v6.4L2,11.5 C2,11.5,2,5.1,2,5.1z M13.2,8.5L10.5,10v2.4l2.7-1.5V8.5z"/></symbol>
    <symbol id="img-cupon" 		viewBox="0 0 16 16"><path d="M16,0.6C16,0.3,15.8,0,15.4,0H7.5C7.4,0,7.2,0.1,7.1,0.2L0.7,6.5C0.3,6.9,0,7.5,0,8.1 c0,0.6,0.2,1.2,0.7,1.6l5.6,5.6c0.4,0.4,1,0.7,1.6,0.7s1.2-0.2,1.6-0.7l6.4-6.5C16,8.8,16,8.6,16,8.4V0.6z M7.2,14.4L1.6,8.8 C1.4,8.6,1.3,8.4,1.3,8.1c0-0.3,0.1-0.5,0.3-0.7l0.3-0.3l7,7l-0.3,0.3C8.2,14.8,7.5,14.8,7.2,14.4z M9.7,13.3l-7-7l5-5h7v6.9 L9.7,13.3z M13.2,4.4c0-1-0.8-1.8-1.7-1.8S9.7,3.4,9.7,4.4s0.8,1.8,1.7,1.8S13.2,5.4,13.2,4.4z M11.4,4.9c-0.3,0-0.6-0.2-0.6-0.6 s0.2-0.6,0.6-0.6c0.3,0,0.6,0.2,0.6,0.6S11.7,4.9,11.4,4.9z"/></symbol>
    <symbol id="img-os-new" 	viewBox="0 0 16 16"><path d="M13.5,15.9c0,0.1-0.1,0.1-0.1,0.1c-0.1,0-0.1,0-0.2,0c0,0-0.1,0-0.1,0l-0.7-0.7l-0.7,0.7 c-0.1,0.1-0.2,0.1-0.3,0l-0.7-0.7l-0.7,0.7c-0.1,0.1-0.2,0.1-0.3,0l-0.7-0.7l-0.7,0.7c-0.1,0.1-0.2,0.1-0.3,0l-0.7-0.7l-0.7,0.7 c-0.1,0.1-0.2,0.1-0.3,0l-0.7-0.7l-0.7,0.7c-0.1,0.1-0.2,0.1-0.3,0l-0.7-0.7l-0.7,0.7c0,0,0,0-0.1,0c-0.1,0-0.1,0-0.2,0 c-0.1,0-0.1-0.1-0.1-0.1c0,0,0-0.1,0-0.1V2.2c0,0,0,0,0,0c0,0,0,0,0,0c0-0.4,0.3-0.7,0.7-0.7c0,0,0,0,0,0h2.3V2H3.2c0,0,0,0,0,0 C3.1,2,3,2.1,3,2.2c0,0,0,0,0,0c0,0,0,0,0,0v13l0.5-0.5c0,0,0.1-0.1,0.2-0.1s0.1,0,0.2,0.1l0.7,0.7l0.7-0.7c0,0,0.1-0.1,0.2-0.1 c0.1,0,0.1,0,0.2,0.1l0.7,0.7L7,14.8c0,0,0.1-0.1,0.2-0.1c0.1,0,0.1,0,0.2,0.1L8,15.5l0.7-0.7c0,0,0.1-0.1,0.2-0.1 c0.1,0,0.1,0,0.2,0.1l0.7,0.7l0.7-0.7c0,0,0.1-0.1,0.2-0.1c0.1,0,0.1,0,0.2,0.1l0.7,0.7l0.7-0.7c0,0,0.1-0.1,0.2-0.1 c0.1,0,0.1,0,0.2,0.1l0.5,0.5v-13C13,2.1,12.9,2,12.8,2h-2.3V1.6h2.3c0.4,0,0.7,0.3,0.7,0.7L13.5,15.9 C13.5,15.8,13.5,15.8,13.5,15.9z M10.2,10.1c-0.2,0-0.4-0.3-0.4-0.7c0-0.4,0.2-0.7,0.4-0.7s0.4,0.3,0.4,0.7 C10.6,9.8,10.4,10.1,10.2,10.1z M6.9,11c0,0.6,0.5,1.1,1.1,1.1c0.6,0,1.1-0.5,1.1-1.1c0-0.1,0.1-0.2,0.2-0.2c0.1,0,0.2,0.1,0.2,0.2 c0,0.8-0.7,1.5-1.5,1.5S6.5,11.8,6.5,11c0-0.1,0.1-0.2,0.2-0.2C6.8,10.7,6.9,10.8,6.9,11z M6.3,1.5l0.3-0.3l1.1,1.1L10,0l0.3,0.3 L7.8,3.1L6.3,1.5z M5.8,10.1c-0.2,0-0.4-0.3-0.4-0.7c0-0.4,0.2-0.7,0.4-0.7s0.4,0.3,0.4,0.7C6.3,9.8,6.1,10.1,5.8,10.1z"/></symbol>
    <symbol id="img-os-ok" 		viewBox="0 0 16 16"><path d="M15.7,15.5H0.3c-0.2,0-0.3-0.1-0.3-0.3v-10c0,0,0,0,0,0v0c0,0,0,0,0,0c0,0,0,0,0-0.1l1.8-4.5c0,0,0,0,0,0 c0-0.1,0.1-0.2,0.2-0.2c0,0,0,0,0,0c0,0,0,0,0,0h11.8c0,0,0,0,0,0c0,0,0,0,0,0c0.1,0,0.2,0.1,0.2,0.2c0,0,0,0,0,0L16,5.1 c0,0,0,0,0,0.1c0,0,0,0,0,0v0c0,0,0,0,0,0v10C16,15.4,15.9,15.5,15.7,15.5z M2.3,1L0.7,4.9h5.6L6.8,1C6.8,1,2.3,1,2.3,1z M7.7,1H7.4 L7,4.9h0.7V1z M8.6,1H8.3v3.9H9L8.6,1z M9.1,5.5H6.9v0.7l1-0.3c0,0,0,0,0,0c0,0,0,0,0.1,0c0,0,0,0,0.1,0c0,0,0,0,0,0l1,0.3L9.1,5.5 L9.1,5.5z M13.7,1H9.2l0.4,3.9h5.6L13.7,1z M15.4,5.5H9.7v1.1c0,0,0,0,0,0c0,0,0,0,0,0c0,0,0,0,0,0c0,0.1-0.1,0.1-0.1,0.1 c0,0,0,0,0,0c0,0-0.1,0-0.2,0c0,0-0.1,0-0.1,0L8,6.5L6.7,6.9c0,0-0.1,0-0.1,0c-0.1,0-0.1,0-0.2,0c0,0,0,0,0,0c0,0-0.1-0.1-0.1-0.1 c0,0,0,0,0,0c0,0,0,0,0,0c0,0,0,0,0,0V5.5H0.6V15h14.8h0V5.5z M11,10.2c-0.3,0-0.6-0.4-0.6-0.9s0.3-0.9,0.6-0.9 c0.3,0,0.6,0.4,0.6,0.9S11.3,10.2,11,10.2z M8,13.5c-1.1,0-2.1-0.9-2.1-2.1c0-0.2,0.1-0.3,0.3-0.3c0.2,0,0.3,0.1,0.3,0.3 c0,0.8,0.7,1.5,1.5,1.5s1.5-0.7,1.5-1.5c0-0.2,0.1-0.3,0.3-0.3s0.3,0.1,0.3,0.3C10.1,12.6,9.1,13.5,8,13.5z M5,10.2 c-0.3,0-0.6-0.4-0.6-0.9S4.7,8.5,5,8.5c0.3,0,0.6,0.4,0.6,0.9S5.4,10.2,5,10.2z"/></symbol>
    <symbol id="img-os-sent" 	viewBox="0 0 16 16"><path d="M8,16C6.2,16,2.4,8.3,2.4,5.6C2.4,2.5,4.9,0,8,0s5.6,2.5,5.6,5.6C13.6,8.3,9.8,16,8,16z M8,0.5 c-2.8,0-5.1,2.3-5.1,5.1c0,2.9,3.8,9.9,5.1,9.9c1.2,0,5.1-7,5.1-9.9C13.1,2.8,10.8,0.5,8,0.5z M10.4,6.1c-0.3,0-0.5-0.3-0.5-0.7 c0-0.4,0.2-0.7,0.5-0.7s0.5,0.3,0.5,0.7C10.9,5.7,10.7,6.1,10.4,6.1z M8,8.7C7.1,8.7,6.3,8,6.3,7c0-0.1,0.1-0.2,0.2-0.2 c0.1,0,0.2,0.1,0.2,0.2c0,0.7,0.5,1.2,1.2,1.2S9.2,7.7,9.2,7c0-0.1,0.1-0.2,0.2-0.2S9.7,6.9,9.7,7C9.7,8,8.9,8.7,8,8.7z M5.6,6.1 c-0.3,0-0.5-0.3-0.5-0.7c0-0.4,0.2-0.7,0.5-0.7s0.5,0.3,0.5,0.7C6.1,5.7,5.8,6.1,5.6,6.1z"/></symbol>
    <symbol id="img-os-hold" 	viewBox="0 0 16 16"><path d="M13.1,15.9c0,0-0.1,0.1-0.1,0.1c0,0-0.1,0-0.2,0c0,0,0,0-0.1,0l-0.7-0.7l-0.7,0.7c-0.1,0.1-0.2,0.1-0.3,0 l-0.7-0.7l-0.7,0.7c-0.1,0.1-0.2,0.1-0.3,0l-0.7-0.7l-0.7,0.7c-0.1,0.1-0.2,0.1-0.3,0l-0.7-0.7l-0.7,0.7c-0.1,0.1-0.2,0.1-0.3,0 l-0.7-0.7l-0.7,0.7c-0.1,0.1-0.2,0.1-0.3,0l-0.7-0.7l-0.7,0.7c0,0,0,0-0.1,0c-0.1,0-0.1,0-0.2,0c0,0-0.1-0.1-0.1-0.1 c0,0,0-0.1,0-0.1V3.2c0,0,0,0,0,0c0,0,0,0,0,0c0-0.3,0.3-0.6,0.6-0.6c0,0,0,0,0,0h2.1V3H3.5c0,0,0,0,0,0C3.4,3,3.3,3.1,3.3,3.2 c0,0,0,0,0,0c0,0,0,0,0,0v12.1l0.5-0.5c0,0,0.1-0.1,0.1-0.1s0.1,0,0.1,0.1l0.7,0.7l0.7-0.7c0,0,0.1-0.1,0.1-0.1c0.1,0,0.1,0,0.1,0.1 l0.7,0.7L7,14.8c0,0,0.1-0.1,0.1-0.1c0.1,0,0.1,0,0.1,0.1L8,15.5l0.7-0.7c0,0,0.1-0.1,0.1-0.1c0.1,0,0.1,0,0.1,0.1l0.7,0.7l0.7-0.7 c0,0,0.1-0.1,0.1-0.1c0.1,0,0.1,0,0.1,0.1l0.7,0.7l0.7-0.7c0,0,0.1-0.1,0.1-0.1c0.1,0,0.1,0,0.1,0.1l0.5,0.5V3.2 c0-0.1-0.1-0.2-0.2-0.2h-2.1V2.6h2.1c0.3,0,0.6,0.3,0.6,0.6L13.1,15.9C13.1,15.8,13.1,15.9,13.1,15.9z M9.8,1.3l0.9-1H9.9V0h1.3v0.2 l-0.9,1h0.9v0.3H9.8L9.8,1.3L9.8,1.3z M10.9,9.8c0.1,0,0.2,0.1,0.2,0.2s-0.1,0.2-0.2,0.2H9.8c-0.1,0-0.2-0.1-0.2-0.2 c0-0.1,0.1-0.2,0.2-0.2H10.9z M9.8,12.1c0,0.1-0.1,0.2-0.2,0.2H6.4c-0.1,0-0.2-0.1-0.2-0.2c0-0.1,0.1-0.2,0.2-0.2h3.2 C9.7,11.9,9.8,12,9.8,12.1z M7,3.4l1.5-1.8H7V1.1h2.2v0.4L7.7,3.4h1.5v0.5H7V3.4z M6.2,10.2H5.1c-0.1,0-0.2-0.1-0.2-0.2 c0-0.1,0.1-0.2,0.2-0.2h1.1c0.1,0,0.2,0.1,0.2,0.2C6.4,10.1,6.3,10.2,6.2,10.2z"/></symbol>
    <symbol id="img-os-cancel"	viewBox="0 0 16 16"><path d="M14,15.9c0,0.1-0.1,0.1-0.1,0.1c-0.1,0-0.1,0-0.2,0c0,0-0.1,0-0.1-0.1l-0.8-0.8l-0.8,0.8 c-0.1,0.1-0.2,0.1-0.3,0l-0.8-0.8l-0.8,0.8C10,16,9.9,16,9.8,15.9L9,15.1l-0.8,0.8c-0.1,0.1-0.2,0.1-0.3,0L7,15.1l-0.8,0.8 C6.1,16,6,16,5.9,15.9l-0.8-0.8l-0.8,0.8C4.2,16,4,16,3.9,15.9l-0.8-0.8l-0.8,0.8c0,0,0,0-0.1,0.1c-0.1,0-0.1,0-0.2,0 C2,16,2,15.9,2,15.9c0,0,0-0.1,0-0.1v-15c0,0,0,0,0,0c0,0,0,0,0,0C1.9,0.3,2.3,0,2.7,0c0,0,0,0,0,0h10.7c0.4,0,0.7,0.3,0.7,0.7 L14,15.9C14.1,15.8,14.1,15.8,14,15.9z M13.6,0.7c0-0.1-0.1-0.2-0.2-0.2H2.7c0,0,0,0,0,0c-0.1,0-0.2,0.1-0.2,0.2c0,0,0,0,0,0 c0,0,0,0,0,0v14.4L3,14.6c0,0,0.1-0.1,0.2-0.1c0.1,0,0.1,0,0.2,0.1l0.8,0.8l0.8-0.8c0,0,0.1-0.1,0.2-0.1c0.1,0,0.1,0,0.2,0.1 l0.8,0.8l0.8-0.8c0,0,0.1-0.1,0.2-0.1c0.1,0,0.1,0,0.2,0.1L8,15.4l0.8-0.8c0,0,0.1-0.1,0.2-0.1c0.1,0,0.1,0,0.2,0.1l0.8,0.8l0.8-0.8 c0,0,0.1-0.1,0.2-0.1c0.1,0,0.1,0,0.2,0.1l0.8,0.8l0.8-0.8c0,0,0.1-0.1,0.2-0.1c0.1,0,0.1,0,0.2,0.1l0.6,0.6L13.6,0.7L13.6,0.7z M7.6,9.3h0.8v0.9H7.6V9.3z M7.6,5.8h0.8v2.8H7.6V5.8z"/></symbol>
    <symbol id="img-bill" 		viewBox="0 0 16 16"><path d="M12.9,5.4H9.2V0.5C9.2,0.2,9,0,8.7,0h-7C1.4,0,1.2,0.2,1.2,0.5v13.5c0,0,0,0,0,0c0,1.1,0.9,1.9,1.9,1.9h7 c1.1,0,1.9-0.9,1.9-1.9v-2.9h2.3c0.3,0,0.5-0.2,0.5-0.5V7.3C14.8,6.2,13.9,5.4,12.9,5.4z M3.1,14.9c-0.5,0-0.9-0.4-0.9-0.9 c0,0,0,0,0,0v-13h5.9v13c0,0.3,0.1,0.6,0.2,0.9H3.1z M11,7.3C11,7.3,11,7.3,11,7.3l0,6.8c0,0.5-0.4,0.9-0.9,0.9 c-0.5,0-0.9-0.4-0.9-0.9V6.4h2C11,6.7,11,7,11,7.3z M13.8,10.2H12V7.3c0,0,0,0,0,0c0-0.5,0.4-0.9,0.9-0.9c0.5,0,0.9,0.4,0.9,0.9 V10.2z M6.5,3.1H3.9c-0.3,0-0.5,0.2-0.5,0.5c0,0.3,0.2,0.5,0.5,0.5h2.5C6.8,4.1,7,3.9,7,3.6C7,3.3,6.8,3.1,6.5,3.1z M6.5,7H3.9 C3.6,7,3.4,7.2,3.4,7.5c0,0.3,0.2,0.5,0.5,0.5h2.5C6.8,8.1,7,7.8,7,7.5C7,7.2,6.8,7,6.5,7z M6.5,10.9H3.9c-0.3,0-0.5,0.2-0.5,0.5 c0,0.3,0.2,0.5,0.5,0.5h2.5C6.8,12,7,11.8,7,11.5C7,11.2,6.8,10.9,6.5,10.9z"/></symbol>
    <symbol id="img-track" 		viewBox="0 0 16 16"><path d="M6.6,5.4C6.8,5.3,6.9,5,6.8,4.7C6.7,4.5,6.4,4.4,6.1,4.5C4.4,5.4,3.7,7.4,4.1,9c0.5,1.9,2.2,3,3.8,3 c0.8,0,1.6-0.2,2.2-0.6c1.4-0.9,2.2-2.6,1.7-4.5c-0.1-0.3-0.4-0.4-0.6-0.3c-0.3,0.1-0.4,0.4-0.3,0.6c0.2,0.5,0.1,1.1,0,1.7 c-0.4,1.4-1.8,2.3-3.2,2.1c-1.1-0.1-2.2-1-2.5-2.1C4.7,7.3,5.6,5.9,6.6,5.4z M13.8,2.5c-0.1-0.2-0.2-0.3-0.3-0.4C12,0.8,10,0,7.9,0 c0,0-0.1,0-0.1,0C7.6,0.1,7.5,0.3,7.5,0.5c0,2.5,0,5,0,7.4c0,0.2,0.1,0.4,0.3,0.5c0.2,0.1,0.4,0,0.6-0.1l5.3-5.3 C13.8,2.9,13.8,2.7,13.8,2.5z M14.8,3.8c-0.1-0.2-0.5-0.3-0.7-0.1c-0.2,0.1-0.3,0.5-0.1,0.7C14.7,5.5,15,7,15,8.4 c-0.2,2.8-2.1,5.4-4.9,6.3c-3,0.9-6.8-0.3-8.4-3.7C1,9.6,0.9,8.1,1.1,6.7c0.6-2.9,2.8-4.9,5.2-5.4c0.1,0,0.2-0.1,0.3-0.2 c0.2-0.2,0.2-0.5,0-0.7C6.6,0.2,6.3,0.1,6.1,0.2C4.2,0.7,1.9,2,0.6,4.8c-1,2.2-1.4,6.8,2.6,9.7c1.2,0.9,2.6,1.4,4.1,1.5 c2.8,0.2,5.7-1.1,7.4-3.7C16,10.3,16.8,6.9,14.8,3.8z"/></symbol>
    <symbol id="img-facebook" 	viewBox="0 0 16 16"><path d="M9.4,16V8.7H12l0.4-2.8H9.4V4c0-0.8,0.2-1.4,1.5-1.4h1.6V0.1c-0.3,0-1.3-0.1-2.4-0.1 c-2.4,0-4,1.3-4,3.7v2.1H3.5v2.8h2.7V16H9.4L9.4,16z"/></symbol>
    <symbol id="img-twitter" 	viewBox="0 0 20 16"><path d="M9.9,5c0,0-5,0-8.5-4.2c0,0-1.9,2.9,1.3,5.4c0,0-1,0-1.9-0.5c0,0-0.2,3,3.2,4c0,0-1,0.3-1.8,0 c0,0,0.5,2.5,3.8,2.8c0,0-2.6,2.1-6.1,1.7c0,0,2.8,1.9,6,1.8C18.1,15.6,18,4,18,4s1.6-1.3,2-2.1c0,0-1.6,0.6-2.3,0.6 c0,0,1.3-0.9,1.8-2.2c0,0-1.8,0.9-2.6,0.9c0,0-1-1.3-3-1.3C11.9,0,9.3,1.6,9.9,5z"/></symbol>
    <symbol id="img-googleplus" viewBox="0 0 25 16"><path d="M21.2,9.9v4.4h-2.9V9.9h-3.9V7.1h3.8V2.9h2.9v4.2H25v2.8L21.2,9.9L21.2,9.9z M6.7,16C6.2,16,0.1,16.1,0,8.6V7.6 C0,6.8-0.1,0,6.4,0c3.7,0,5.7,1.8,6.1,5.2H9.5C9.2,3.4,8.2,2.6,6.6,2.6c-4.1,0-3.3,5.9-3.3,5.9c0,1.6,0.3,2.9,0.9,3.7 c1.2,1.7,4.2,1.5,5.3,0.5V10H6.6V7.6h6.1v6.2C11.5,15.2,9.2,16,6.7,16z"/></symbol>
    <symbol id="img-linkedin" 	viewBox="0 0 16 16"><path d="M14.9,16H1.1C0.5,16,0,15.5,0,14.9V1.1C0,0.5,0.5,0,1.1,0h13.8C15.5,0,16,0.5,16,1.1v13.8 C16,15.5,15.5,16,14.9,16z M2.3,13.7h2.4V6H2.3V13.7z M3.6,2.2c-0.7,0-1.3,0.6-1.3,1.3s0.6,1.3,1.3,1.3c0.7,0,1.3-0.6,1.3-1.3 S4.3,2.2,3.6,2.2z M13.7,10.2c0-3.7-1-4.3-2.8-4.3c-1.4,0-2.1,0.7-2.3,0.9V6H6.3v7.7h2.3V9.9c0-1.4,0.6-2,1.5-2 c0.8,0,1.2,0.7,1.2,2.3v3.5h2.4L13.7,10.2L13.7,10.2z"/></symbol>
    <symbol id="img-pinterest" 	viewBox="0 0 16 16"><path d="M8,16c-0.9,0-1.7-0.1-2.4-0.4c0.2-0.2,0.8-1.1,1-1.8c0.2-0.8,0.6-2.2,0.6-2.2s0.4,0.9,1.8,0.9 s4.1-1.4,4.1-5c0-1.7-1.4-4.5-5-4.5S3,5.5,3,7.8c0,2.3,1.7,3.1,1.7,3.1L5,9.8c0,0-0.7-0.6-0.7-2S5.3,4.4,8,4.4s3.3,2.1,3.3,3.3 s-0.6,3.6-2.6,3.6c-0.9,0-1.2-0.6-1.2-1.2s0.7-2.4,0.7-3S7.9,6,7.3,6S5.8,6.7,5.8,8c0,0.8,0.3,1.2,0.3,1.2s-1,4.1-1,4.9 c0,0.5,0,1.1,0.1,1.4C2.1,14.3,0,11.4,0,8c0-4.4,3.6-8,8-8s8,3.6,8,8S12.4,16,8,16z"/></symbol>
    <symbol id="img-whatsapp" 	viewBox="0 0 16 16"><path d="M8.1,15.6c-1.4,0-2.7-0.4-3.8-1L0,16l1.4-4.2c-0.7-1.2-1.1-2.6-1.1-4C0.3,3.5,3.8,0,8.1,0 C12.5,0,16,3.5,16,7.8C16,12.1,12.5,15.6,8.1,15.6z M8.1,1.2c-3.6,0-6.6,2.9-6.6,6.6c0,1.4,0.5,2.8,1.3,3.8L2,14.1l2.5-0.8 c1,0.7,2.3,1.1,3.6,1.1c3.6,0,6.6-2.9,6.6-6.6C14.7,4.2,11.8,1.2,8.1,1.2z M10.3,11.4c-2.3-0.1-5.9-2.9-6-5.4 C4.2,4.3,5.6,4.2,5.9,4.2c0.4,0,0.4,0.6,1,1.7c0.2,0.4-0.8,1.1-0.5,1.4c0.1,0.2,0.5,0.8,1.1,1.3c0.9,0.9,1.7,1,1.9,0.9 c0.4-0.1,0.5-0.8,1-0.9c0.2,0,1.8,0.7,1.8,0.9C12.2,10.9,11,11.5,10.3,11.4z"/></symbol>
    <symbol id="img-tumblr" 	viewBox="0 0 16 16"><path d="M3.4,4.4c0,0,3.1-1.2,3.1-4.4H9v4h2.9v2.8H9c0,0,0,4,0,4.9c0,2.1,2.8,1.2,2.8,1.2l0.8,2.2 c0,0-1.3,0.9-2.9,0.9c-1.6,0-4.4-1-4.4-4.4s0-4.8,0-4.8H3.4L3.4,4.4L3.4,4.4z"/></symbol>

    <!--
	Ícones opcionais
	* Caso exclua um destes sprites, lembre-se de apagar a chamada nas inserções
	-->
    <symbol id="i-menu"     viewBox="0 0 16 16"><path d="M14.4,3.2H1.6C0.7,3.2,0,2.5,0,1.6v0C0,0.7,0.7,0,1.6,0l12.8,0C15.3,0,16,0.7,16,1.6v0 C16,2.5,15.3,3.2,14.4,3.2z M16,14.4L16,14.4c0-0.9-0.7-1.6-1.6-1.6H1.6c-0.9,0-1.6,0.7-1.6,1.6v0C0,15.3,0.7,16,1.6,16h12.8 C15.3,16,16,15.3,16,14.4z M16,8L16,8c0-0.9-0.7-1.6-1.6-1.6H1.6C0.7,6.4,0,7.1,0,8v0c0,0.9,0.7,1.6,1.6,1.6h12.8 C15.3,9.6,16,8.9,16,8z"/></symbol>
    <symbol id="i-search"   viewBox="0 0 16 16"><path d="M6.9,13.9c1.7,0,3.3-0.6,4.5-1.6l3.6,3.6c0.2,0.2,0.6,0.2,0.9,0c0.2-0.2,0.2-0.6,0-0.9l-3.6-3.6 c1-1.2,1.6-2.8,1.6-4.5c0-3.8-3.1-6.9-6.9-6.9S0,3.1,0,6.9S3.1,13.9,6.9,13.9z M6.9,1.2c3.2,0,5.7,2.6,5.7,5.7c0,1.6-0.6,3-1.7,4.1 c0,0,0,0,0,0c0,0,0,0,0,0c-1,1-2.5,1.7-4.1,1.7c-3.2,0-5.7-2.6-5.7-5.7S3.8,1.2,6.9,1.2z"/></symbol>
    <symbol id="i-cart"     viewBox="0 0 16 16"><path d="M15.2,15.5l-0.9-11c0-0.2-0.2-0.4-0.4-0.4h-2V3.9C11.9,1.8,10.2,0,8,0S4.1,1.8,4.1,3.9v0.2h-2 c-0.2,0-0.4,0.2-0.4,0.4L0.8,15.6c0,0.1,0,0.2,0.1,0.3C1,16,1.1,16,1.2,16h13.7c0,0,0,0,0,0C15,16,15.2,15.8,15.2,15.5 C15.2,15.6,15.2,15.5,15.2,15.5z M4.9,3.9c0-1.7,1.4-3.1,3.1-3.1s3.1,1.4,3.1,3.1v0.2H4.9V3.9z M1.6,15.2L2.5,4.9h1.6v0.6 C3.8,5.7,3.7,5.9,3.7,6.2C3.7,6.7,4,7,4.5,7s0.8-0.4,0.8-0.8c0-0.3-0.2-0.6-0.4-0.7V4.9h6.3v0.6c-0.2,0.1-0.4,0.4-0.4,0.7 c0,0.4,0.4,0.8,0.8,0.8s0.8-0.4,0.8-0.8c0-0.3-0.2-0.6-0.4-0.7V4.9h1.6l0.9,10.3H1.6L1.6,15.2z"/></symbol>
    <symbol id="i-wish"     viewBox="0 0 16 16"><path d="M2,9.2C0.6,7.6,0,5.9,0,4.4C0,1.7,1.5,0,3.8,0C6,0,6.7,1.1,8,2.8C9.3,1.1,10,0,12.2,0 C14.5,0,16,1.7,16,4.4c0,1.5-0.6,3.2-2,4.8L8,16L2,9.2z"/></symbol>
    <symbol id="i-user"     viewBox="0 0 16 16">
        <path class="female" d="M8,0C6.2,0,3.7,1.2,3.7,3.9v1.5C3.1,5.4,2.7,6,2.7,6.6s0.5,1.1,1.1,1.2c-0.1,2.4-0.8,5.6-2.4,6 C1.6,15,2.6,16,3.4,16h9.3c0.5,0,1.8-0.6,2.3-2.2c-1.7-0.3-2.7-3.7-2.7-6c0.6-0.1,1.1-0.6,1.1-1.2s-0.5-1.1-1.1-1.2V3.9 C12.3,1.9,11.4,0,8,0z M8.7,13.3c0,0.6-1.5,0.5-1.5,0v-0.9c0.1,0.1,1.3,0.1,1.5,0V13.3z M12.6,6.6c0,0.3-0.2,0.6-0.6,0.6 c-0.1,0-0.5,0-0.5,0v1.4c0,1.8-1.4,3.2-3.2,3.2H7.6c-1.8,0-3.2-1.4-3.2-3.2V7.1l-0.5,0c-0.3,0-0.6-0.2-0.6-0.6S3.6,6,3.9,6l0.5,0 V4.3c2.9,0.6,3.7-1,4.7-1c1,0,1.6,1.8,1.6,1.8c0.8-0.4,0.8-0.8,0.8-1V6c0,0,0.5,0,0.5,0C12.4,6,12.6,6.3,12.6,6.6z M8,8.2 c0.3,0,0.5-0.2,0.5-0.4c0-0.2-0.2-0.4-0.5-0.4c-0.3,0-0.5,0.2-0.5,0.4C7.5,8,7.7,8.2,8,8.2z M10,6C9.7,6,9.4,6.3,9.4,6.6 S9.7,7.1,10,7.1c0.3,0,0.5-0.2,0.5-0.5S10.3,6,10,6z M6.6,6.6C6.6,6.3,6.3,6,6,6S5.5,6.3,5.5,6.6S5.7,7.1,6,7.1S6.6,6.9,6.6,6.6z M10.1,8.8c-0.2-0.1-0.4,0-0.4,0.2C9.3,9.6,8.7,10,8,10c-0.7,0-1.3-0.4-1.6-1C6.3,8.8,6.1,8.7,5.9,8.8C5.7,8.8,5.7,9,5.7,9.2 C6.2,10.1,7,10.7,8,10.7c1,0,1.8-0.6,2.3-1.4C10.3,9,10.3,8.8,10.1,8.8z"/>
        <path class="male" d="M8,0C6.2,0,3.7,1.2,3.7,3.9v1.5C3.1,5.4,2.7,6,2.7,6.6s0.5,1.1,1.1,1.2v0.7c0,1.8,1.2,3.3,2.9,3.8 v0.3c-2.8,0-3.8,3.4-3.8,3.4h10.5c0,0-1.2-3.4-3.8-3.4v-0.3c1.6-0.5,2.9-2,2.9-3.8V7.8c0.6-0.1,1.1-0.6,1.1-1.2s-0.5-1.1-1.1-1.2 V5.1c2-0.4,2.2-1.4,2.2-1.8C12.8,3.6,11.4,0,8,0z M8.7,13.3c0,0.6-1.5,0.5-1.5,0v-0.9c0.1,0.1,1.3,0.1,1.5,0V13.3z M12.6,6.6 c0,0.3-0.2,0.6-0.6,0.6c-0.1,0-0.5,0-0.5,0v1.4c0,1.8-1.4,3.2-3.2,3.2H7.6c-1.8,0-3.2-1.4-3.2-3.2V7.1l-0.5,0 c-0.3,0-0.6-0.2-0.6-0.6S3.6,6,3.9,6l0.5,0l0.8-2.2C6,4.3,7.8,5.5,11.6,5.2V6c0,0,0.5,0,0.5,0C12.4,6,12.6,6.3,12.6,6.6z M8,8.2 c0.3,0,0.5-0.2,0.5-0.4c0-0.2-0.2-0.4-0.5-0.4c-0.3,0-0.5,0.2-0.5,0.4C7.5,8,7.7,8.2,8,8.2z M10,6C9.7,6,9.4,6.3,9.4,6.6 S9.7,7.1,10,7.1c0.3,0,0.5-0.2,0.5-0.5S10.3,6,10,6z M6.6,6.6C6.6,6.3,6.3,6,6,6S5.5,6.3,5.5,6.6S5.7,7.1,6,7.1S6.6,6.9,6.6,6.6z M10.1,8.8c-0.2-0.1-0.4,0-0.4,0.2C9.3,9.6,8.7,10,8,10c-0.7,0-1.3-0.4-1.6-1C6.3,8.8,6.1,8.7,5.9,8.8C5.7,8.8,5.7,9,5.7,9.2 C6.2,10.1,7,10.7,8,10.7c1,0,1.8-0.6,2.3-1.4C10.3,9,10.3,8.8,10.1,8.8z"/>
    </symbol>

    <!-- Tema Pagfun-->
    <symbol fill="currentColor" viewBox="0 0 53.4 53.4" id="z-close"><path d="M53.4 43.19L36.92 26.7 53.4 10.21 43.19 0 26.7 16.48 10.22 0 0 10.21 16.49 26.7 0 43.19 10.22 53.4 26.7 36.92 43.19 53.4z"/></symbol>
    <symbol fill="currentColor" viewBox="0 0 32.93 26.52" id="z-next"><path d="M19.86 0l-3.69 3.74 9.38 9.52-9.38 9.52 3.69 3.74 13.07-13.26zM3.69 0L0 3.74l9.38 9.52L0 22.78l3.69 3.74 13.06-13.26z"/></symbol>
    <symbol fill="currentColor" viewBox="0 0 71.89 29.21" id="z-next-four"><path d="M57.5 0l-4.07 4.12L63.76 14.6 53.43 25.08l4.07 4.13L71.89 14.6zM39.69 0l-4.07 4.12L46 14.6 35.62 25.08l4.07 4.13L54.07 14.6zM21.87 0l-4.06 4.12L28.14 14.6 17.81 25.08l4.06 4.13L36.26 14.6zM4.06 0L0 4.12 10.33 14.6 0 25.08l4.06 4.13L18.45 14.6z"/></symbol>
    <symbol fill="currentColor" viewBox="0 0 32.93 26.52" id="z-prev"><path d="M13.07 26.52l3.68-3.74-9.37-9.52 9.37-9.51L13.07 0 0 13.26zm16.17 0l3.69-3.74-9.38-9.52 9.38-9.51L29.24 0 16.17 13.26z"/></symbol>
    <symbol fill="currentColor" viewBox="0 0 71.89 29.21" id="z-prev-four"><path d="M18.45 4.12L14.39 0 0 14.6l14.39 14.61 4.06-4.13L8.13 14.6zm17.81 0L32.2 0 17.81 14.6 32.2 29.21l4.06-4.13L25.94 14.6zm17.81 0L50 0 35.62 14.6 50 29.21l4.06-4.13L43.75 14.6zm17.82 0L67.82 0 53.43 14.6l14.39 14.61 4.07-4.13L61.56 14.6z"/></symbol>
    <symbol fill="currentColor" viewBox="0 0 41.99 41.94" id="z-search"><path d="M41.29 37.91l-7.5-7.56a18.86 18.86 0 10-15 7.34 18.66 18.66 0 0011.53-4l7.51 7.51a2.17 2.17 0 001.66.72 2.59 2.59 0 001.71-.66 2.32 2.32 0 00.09-3.35zM4.75 18.82a14.08 14.08 0 1114.08 14.07A14.07 14.07 0 014.75 18.82z"/></symbol>
    <symbol fill="currentColor" viewBox="0 0 65.27 36.26" id="z-wave"><path d="M2.77 8.23l3-3.05a1.6 1.6 0 012.3 0l4.13 4.23a1.62 1.62 0 002.3 0l4.13-4.23a1.6 1.6 0 012.3 0l4.13 4.23a1.62 1.62 0 002.3 0l4.14-4.23a1.59 1.59 0 012.29 0l4.14 4.23a1.61 1.61 0 002.29 0l4.14-4.23a1.6 1.6 0 012.3 0l4.13 4.23a1.62 1.62 0 002.3 0l4.13-4.23a1.6 1.6 0 012.3 0l3 3.05a1.59 1.59 0 002.29 0 1.67 1.67 0 000-2.34l-5.3-5.4a1.6 1.6 0 00-2.3 0l-4.13 4.22a1.6 1.6 0 01-2.3 0L46.65.49a1.6 1.6 0 00-2.3 0l-4.14 4.22a1.59 1.59 0 01-2.29 0L33.78.49a1.59 1.59 0 00-2.29 0l-4.14 4.22a1.6 1.6 0 01-2.3 0L20.92.49a1.6 1.6 0 00-2.3 0l-4.13 4.22a1.6 1.6 0 01-2.3 0L8.06.49a1.6 1.6 0 00-2.3 0L.48 5.89a1.67 1.67 0 000 2.34 1.59 1.59 0 002.29 0zm56.74 5.44a1.6 1.6 0 00-2.3 0l-4.13 4.23a1.62 1.62 0 01-2.3 0l-4.13-4.23a1.6 1.6 0 00-2.3 0l-4.14 4.23a1.61 1.61 0 01-2.29 0l-4.14-4.23a1.59 1.59 0 00-2.29 0l-4.14 4.23a1.62 1.62 0 01-2.3 0l-4.13-4.23a1.6 1.6 0 00-2.3 0l-4.13 4.23a1.62 1.62 0 01-2.3 0l-4.13-4.23a1.6 1.6 0 00-2.3 0l-5.28 5.4a1.68 1.68 0 000 2.35 1.59 1.59 0 002.29 0l3-3.05a1.6 1.6 0 012.3 0l4.13 4.22a1.6 1.6 0 002.3 0l4.13-4.22a1.6 1.6 0 012.3 0l4.13 4.22a1.6 1.6 0 002.3 0l4.14-4.22a1.59 1.59 0 012.29 0l4.14 4.22a1.59 1.59 0 002.29 0l4.14-4.22a1.6 1.6 0 012.3 0l4.13 4.22a1.6 1.6 0 002.3 0l4.13-4.22a1.6 1.6 0 012.3 0l3 3.05a1.59 1.59 0 002.29 0 1.68 1.68 0 000-2.35zm0 13.19a1.6 1.6 0 00-2.3 0l-4.13 4.22a1.6 1.6 0 01-2.3 0l-4.13-4.22a1.6 1.6 0 00-2.3 0l-4.14 4.22a1.59 1.59 0 01-2.29 0l-4.14-4.22a1.59 1.59 0 00-2.29 0l-4.14 4.22a1.6 1.6 0 01-2.3 0l-4.13-4.22a1.6 1.6 0 00-2.3 0l-4.13 4.22a1.6 1.6 0 01-2.3 0l-4.13-4.22a1.6 1.6 0 00-2.3 0l-5.28 5.4a1.67 1.67 0 000 2.34 1.59 1.59 0 002.29 0l3-3.05a1.6 1.6 0 012.3 0l4.13 4.23a1.62 1.62 0 002.3 0l4.13-4.23a1.6 1.6 0 012.3 0l4.13 4.23a1.62 1.62 0 002.3 0l4.14-4.23a1.59 1.59 0 012.29 0l4.14 4.23a1.61 1.61 0 002.29 0l4.14-4.23a1.6 1.6 0 012.3 0l4.13 4.23a1.62 1.62 0 002.3 0l4.13-4.23a1.6 1.6 0 012.3 0l3 3.05a1.59 1.59 0 002.29 0 1.67 1.67 0 000-2.34z"/></symbol>
    <symbol fill="currentColor" viewBox="0 0 110.71 110.71" id="z-circle"><path d="M55.35 0a55.36 55.36 0 1055.36 55.35A55.41 55.41 0 0055.35 0zm0 108.56a53.21 53.21 0 1153.21-53.21 53.27 53.27 0 01-53.21 53.21zM55.35 5a50.33 50.33 0 1050.33 50.32A50.39 50.39 0 0055.35 5zm0 98.5a48.18 48.18 0 1148.18-48.18 48.23 48.23 0 01-48.18 48.21zm0-93.46a45.29 45.29 0 1045.29 45.28 45.33 45.33 0 00-45.29-45.25zm0 88.43A43.15 43.15 0 1198.5 55.35 43.19 43.19 0 0155.35 98.5zm0-83.4a40.26 40.26 0 1040.26 40.28A40.3 40.3 0 0055.35 15.1zm0 78.37a38.12 38.12 0 1138.12-38.09 38.16 38.16 0 01-38.12 38.12zm0-73.34a35.23 35.23 0 1035.23 35.25 35.26 35.26 0 00-35.23-35.22zm0 68.3a33.08 33.08 0 1133.08-33.05 33.12 33.12 0 01-33.08 33.08zm0-63.27a30.19 30.19 0 1030.2 30.19 30.23 30.23 0 00-30.2-30.16zm0 58.24A28 28 0 1183.4 55.35 28.08 28.08 0 0155.35 83.4zm0-53.2a25.16 25.16 0 1025.16 25.18A25.18 25.18 0 0055.35 30.2zm0 48.17a23 23 0 1123-23 23 23 0 01-23 23.03zm0-43.14a20.13 20.13 0 1020.13 20.15 20.15 20.15 0 00-20.13-20.12zm0 38.11a18 18 0 1118-18 18 18 0 01-18 18.03zm0-33.08a15.1 15.1 0 1015.1 15.09 15.11 15.11 0 00-15.1-15.06zm0 28A13 13 0 1168.3 55.35 13 13 0 0155.35 68.3z"/></symbol>
    <symbol viewBox="0 0 197.65 206.24" id="z-video" xmlns="http://www.w3.org/2000/svg"><defs><linearGradient id="hGradiente_sem_nome_9" y1="66.57" x2="116.42" y2="66.57" gradientUnits="userSpaceOnUse"><stop offset="0" stop-color="#e85f25"/><stop offset="0" stop-color="#ea562e"/><stop offset="0" stop-color="#f13e48"/><stop offset="0" stop-color="#fb1771"/><stop offset="0" stop-color="#ff0782"/><stop offset="1" stop-color="#ea562f"/></linearGradient><linearGradient id="hGradiente_sem_nome_6" x1="87.79" y1="151.41" x2="197.65" y2="151.41" gradientUnits="userSpaceOnUse"><stop offset="0" stop-color="#e85f25"/><stop offset=".18" stop-color="#ea562e"/><stop offset=".48" stop-color="#f13e48"/><stop offset=".85" stop-color="#fb1771"/><stop offset=".99" stop-color="#ff0782"/></linearGradient><linearGradient id="hGradiente_sem_nome_6-2" x1="14.1" y1="100.75" x2="184.82" y2="100.75" xlink:href="#hGradiente_sem_nome_6"/><linearGradient id="hGradiente_sem_nome_9-2" x1="73.41" y1="136.87" x2="185.47" y2="136.87" xlink:href="#hGradiente_sem_nome_9"/><linearGradient id="hGradiente_sem_nome_6-3" x1="2.27" y1="30.47" x2="69.6" y2="30.47" xlink:href="#hGradiente_sem_nome_6"/><style>.hvideo-cls-1{fill:url(#hGradiente_sem_nome_9)}.hvideo-cls-2{fill:url(#hGradiente_sem_nome_6)}.hvideo-cls-3{fill:url(#hGradiente_sem_nome_6-2)}.hvideo-cls-4{fill:url(#hGradiente_sem_nome_9-2)}.hvideo-cls-5{fill:url(#hGradiente_sem_nome_6-3)}</style></defs><g id="hCamada_2" data-name="Camada 2"><g id="hCamada_1-2" data-name="Camada 1"><g id="hvideo-container"><path id="hvideo-5" class="hvideo-cls-1" d="M0 106.46c.19-.67.4-1.34.56-2a16.76 16.76 0 014.45-8Q46.53 54.78 88.1 13.18c5-5 11.19-6.28 17.78-3.69s10.19 7.89 10.52 15c.23 5-1.8 9.21-5.36 12.78q-34 34-67.9 68.09-7.06 7.1-14.14 14.19c-4.83 4.87-10.62 6.62-17.15 4.58s-10.3-6.59-11.49-13.3A3.5 3.5 0 000 110z"/><path id="hvideo-4" class="hvideo-cls-2" d="M91.56 206.24c-.41-.23-.81-.46-1.22-.67a4.52 4.52 0 01-1.48-7 13.48 13.48 0 011.14-1.14q49.54-49.43 99.11-98.86c1.48-1.47 3.07-2.44 5.25-1.76a4.4 4.4 0 013.19 3.52c.4 1.88-.45 3.32-1.75 4.61q-12 11.91-23.94 23.85-37.24 37.1-74.52 74.21a38.38 38.38 0 01-4.34 3.24z"/><path id="hvideo-3" class="hvideo-cls-3" d="M184.82 44.85c-.21 8.61-2.84 15.73-8.59 21.48Q120.68 121.94 65 177.42c-8.49 8.44-19 10.76-30.35 7s-18.23-12-20.16-23.76c-1.65-10.1 1.48-18.92 8.77-26.2l99.23-99.27c3.58-3.58 7.12-7.2 10.75-10.73 8.71-8.46 19-11.26 30.57-7.6S182 28.67 184.35 40.41c.32 1.59.35 3.31.47 4.44z"/><path id="hvideo-2" class="hvideo-cls-4" d="M82.25 192.88a9.33 9.33 0 01-6.69-15.17 12.09 12.09 0 011.09-1.18q46.21-46.18 92.42-92.37c4.5-4.49 10.76-4.37 14.38.24a9.18 9.18 0 01-.66 12.22c-2 2.07-4 4.06-6.06 6.08q-43.08 43.11-86.16 86.24c-2.23 2.24-4.57 3.94-8.32 3.94z"/><path id="hvideo-1" class="hvideo-cls-5" d="M20.28 53.64a27.44 27.44 0 012.43-4.35c1.5-1.83 3.35-3.38 5-5.1 2.79-2.91 2.84-6.91.15-9.59s-6.7-2.61-9.6.17c-1.46 1.4-2.85 2.88-4.32 4.28-2.94 2.77-6.63 2.65-9.52-.29s-2.9-6.54-.06-9.35Q18.21 15.69 32.12 2c2.88-2.78 6.62-2.65 9.52.26s2.93 6.59.07 9.51c-2.54 2.6-5.15 5.14-7.71 7.72a6.4 6.4 0 00-1.72 6.88 6.41 6.41 0 005.47 4.54 6.7 6.7 0 005.94-2.25c4.76-4.77 9.5-9.54 14.3-14.28a6.3 6.3 0 018-.92c2.93 1.86 4.28 5 3.24 7.94a7.61 7.61 0 01-1.8 2.81q-17.5 17.39-35.1 34.67a6 6 0 01-7.2 1.4C22.51 59 20.78 57 20.72 53.91z"/></g></g></g></symbol>
    <symbol fill="currentColor" viewBox="0 0 36.05 36.05" id="z-timer"><path d="M25.16 17.66h-6.41v-7.61a1 1 0 10-2.08 0v8.7a1 1 0 001 1h7.5a1 1 0 001-1 1.17 1.17 0 00-1.01-1.09zM18 0a18 18 0 1018 18A18.06 18.06 0 0018 0zm0 33a15 15 0 1115-15 15 15 0 01-15 15z"/></symbol>
    <symbol fill="currentColor" viewBox="0 0 49.27 52.79" id="z-date"><path d="M42.78 7h-6.66V1.81a1.73 1.73 0 10-3.45 0V7H16.6V1.81a1.73 1.73 0 10-3.45 0V7H6.49A6.68 6.68 0 000 13.82V46a6.68 6.68 0 006.49 6.82h36.29A6.68 6.68 0 0049.27 46V13.82A6.68 6.68 0 0042.78 7zm0 42.16H6.49a3.13 3.13 0 01-3-3.19V13.82a3.13 3.13 0 013-3.19h6.66v2.5a1.73 1.73 0 103.45 0v-2.5h16v2.5a1.73 1.73 0 103.45 0v-2.5h6.66a3.13 3.13 0 013 3.19V46h.06a3.13 3.13 0 01-2.99 3.16zM15.59 23.27H9.22a1.81 1.81 0 000 3.62h6.37a1.81 1.81 0 000-3.62zm0 16.88H9.22a1.82 1.82 0 000 3.63h6.37a1.82 1.82 0 000-3.63zm0-8.44H9.22a1.82 1.82 0 000 3.63h6.37a1.82 1.82 0 000-3.63zm12.26-8.44h-6.43a1.81 1.81 0 000 3.62h6.37a1.77 1.77 0 001.72-1.81 1.72 1.72 0 00-1.66-1.81zm0 16.88h-6.43a1.82 1.82 0 000 3.63h6.37A1.77 1.77 0 0029.51 42a1.73 1.73 0 00-1.66-1.85zm0-8.44h-6.43a1.82 1.82 0 000 3.63h6.37a1.77 1.77 0 001.72-1.82 1.72 1.72 0 00-1.66-1.81zm12.2-8.44h-6.37a1.81 1.81 0 000 3.62h6.37a1.81 1.81 0 000-3.62zm0 16.88h-6.37a1.82 1.82 0 000 3.63h6.37a1.82 1.82 0 000-3.63zm0-8.44h-6.37a1.82 1.82 0 000 3.63h6.37a1.82 1.82 0 000-3.63z"/></symbol>
    <symbol fill="currentColor" viewBox="0 0 51.88 70.75" id="z-map"><path d="M25.94 0C11.62 0 0 12.49 0 27.88 0 42.74 23.37 68.94 24.36 70a2.08 2.08 0 003.1.06l.06-.06c1-1.09 24.36-27.29 24.36-42.15C51.87 12.49 40.26 0 25.94 0zm0 65C18.72 56.61 4.39 37.86 4.39 27.88 4.39 15.09 14 4.72 25.94 4.72s21.55 10.37 21.55 23.16c0 9.98-14.33 28.73-21.55 37.12zm0-46.94c-5.06 0-9.17 4.41-9.17 9.86s4.11 9.86 9.17 9.86 9.18-4.41 9.18-9.86S31 18 25.94 18zm0 15a5 5 0 01-4.78-5.14 5 5 0 014.78-5.14 5 5 0 014.78 5.14A5 5 0 0125.94 33z"/></symbol>
    <symbol fill="currentColor" viewBox="0 0 225.46 185.99" id="z-multi-circles"><path d="M17.05 8.52A8.53 8.53 0 118.52 0a8.53 8.53 0 018.53 8.52zm41.68 0A8.53 8.53 0 1150.21 0a8.53 8.53 0 018.52 8.52zm41.68 0A8.53 8.53 0 1191.89 0a8.53 8.53 0 018.52 8.52zm41.68 0A8.52 8.52 0 11133.57 0a8.52 8.52 0 018.52 8.52zm41.68 0A8.52 8.52 0 11175.25 0a8.52 8.52 0 018.52 8.52zm41.69 0A8.53 8.53 0 11216.93 0a8.53 8.53 0 018.53 8.52zM17.05 50.76a8.53 8.53 0 11-8.53-8.52 8.52 8.52 0 018.53 8.52zm41.68 0a8.53 8.53 0 11-8.52-8.52 8.52 8.52 0 018.52 8.52zm41.68 0a8.53 8.53 0 11-8.52-8.52 8.52 8.52 0 018.52 8.52zm41.68 0a8.52 8.52 0 11-8.52-8.52 8.51 8.51 0 018.52 8.52zm41.68 0a8.52 8.52 0 11-8.52-8.52 8.51 8.51 0 018.52 8.52zm41.69 0a8.53 8.53 0 11-8.53-8.52 8.52 8.52 0 018.53 8.52zM17.05 93a8.53 8.53 0 11-8.53-8.53A8.53 8.53 0 0117.05 93zm41.68 0a8.53 8.53 0 11-8.52-8.53A8.53 8.53 0 0158.73 93zm41.68 0a8.53 8.53 0 11-8.52-8.53 8.53 8.53 0 018.52 8.53zm41.68 0a8.52 8.52 0 11-8.52-8.53 8.52 8.52 0 018.52 8.53zm41.68 0a8.52 8.52 0 11-8.52-8.53 8.52 8.52 0 018.52 8.53zm41.69 0a8.53 8.53 0 11-8.53-8.53 8.53 8.53 0 018.53 8.53zM17.05 135.23a8.53 8.53 0 11-8.53-8.52 8.53 8.53 0 018.53 8.52zm41.68 0a8.53 8.53 0 11-8.52-8.52 8.53 8.53 0 018.52 8.52zm41.68 0a8.53 8.53 0 11-8.52-8.52 8.53 8.53 0 018.52 8.52zm41.68 0a8.52 8.52 0 11-8.52-8.52 8.52 8.52 0 018.52 8.52zm41.68 0a8.52 8.52 0 11-8.52-8.52 8.52 8.52 0 018.52 8.52zm41.69 0a8.53 8.53 0 11-8.53-8.52 8.53 8.53 0 018.53 8.52zM17.05 177.47A8.53 8.53 0 118.52 169a8.52 8.52 0 018.53 8.47zm41.68 0a8.53 8.53 0 11-8.52-8.47 8.52 8.52 0 018.52 8.47zm41.68 0a8.53 8.53 0 11-8.52-8.47 8.52 8.52 0 018.52 8.47zm41.68 0a8.52 8.52 0 11-8.52-8.52 8.51 8.51 0 018.52 8.52zm41.68 0a8.52 8.52 0 11-8.52-8.52 8.51 8.51 0 018.52 8.52zm41.69 0a8.53 8.53 0 11-8.53-8.52 8.52 8.52 0 018.53 8.52z"/></symbol>
    <symbol fill="currentColor" viewBox="0 0 59.23 61.2" id="z-ticket"><path d="M59 40.77l-2.2-6.66-.94.08a3 3 0 01-3.11-2.12l-.11-.33a3.21 3.21 0 011.24-3.64l.79-.52L52.52 21a5.25 5.25 0 00-.89-1.65 4.7 4.7 0 000-1.3 5.2 5.2 0 00-1.8-3.53L44.64 10l-.76.57a2.93 2.93 0 01-3.72-.1l-.26-.22a3.21 3.21 0 01-.8-3.77l.41-.88-5.19-4.41a4.93 4.93 0 00-7.1.7L23 7.15l.34 3.61a.63.63 0 01-.55.68l-3.48.34L1.15 34.56a5.35 5.35 0 00.68 7.35L7 46.35l.74-.49a2.93 2.93 0 011.66-.49 3.17 3.17 0 01.73 1.21l.11.32a3.23 3.23 0 01-1.09 3.53l-.69.57 2.17 6.66a5.08 5.08 0 004.79 3.56 4.73 4.73 0 001.6-.28l27-9.43 1.55-3.25a.61.61 0 01.35-.31.58.58 0 01.46 0l3.14 1.61 6.24-2.18A5.28 5.28 0 0059 40.77zM7.26 43.3L3.37 40A2.8 2.8 0 013 36.15l17.53-22 2.47-.21a3 3 0 001.59-.67 1.27 1.27 0 00.42 1.14l2.34 2a1.17 1.17 0 001.7-.17 1.28 1.28 0 00-.16-1.76l-2.33-2a1.17 1.17 0 00-1.17-.21 3.32 3.32 0 00.34-1.75L25.53 8l3.56-4.46a2.56 2.56 0 013.69-.36l3.8 3.25a5.73 5.73 0 001.78 5.83l.25.22a5.29 5.29 0 005.88.71l3.84 3.29a2.68 2.68 0 01.93 1.84 2.74 2.74 0 01-.58 2l-3.56 4.46-2.48.22a3 3 0 00-2 1.12 3.2 3.2 0 00-.68 2.29l.19 2.59-17.54 22a2.59 2.59 0 01-1.77 1 2.55 2.55 0 01-1.92-.61L15 49.91a5.71 5.71 0 00-1.85-5.55l-.25-.22a5.3 5.3 0 00-5.64-.84zM55 45l-5.3 1.85-2.2-1.14a3 3 0 00-2.31-.16 3.05 3.05 0 00-1.75 1.58l-1.11 2.31-26.08 9.11a2.6 2.6 0 01-3.32-1.71l-1.63-5a5.62 5.62 0 001-1.5l-.16.4 5.24 4.49a4.94 4.94 0 003.2 1.19h.49a5 5 0 003.41-1.86l5.33-6.68 8.4-2.93-.78-2.38-4.7 1.64 7.62-9.54.86 2.62a1.21 1.21 0 001.14.85 1.32 1.32 0 00.39-.06 1.27 1.27 0 00.76-1.59l-1-3a1.22 1.22 0 00-.67-.75l.79-1-.33-3.61a.66.66 0 01.14-.46.61.61 0 01.41-.22l3.48-.35 4-5 1.46 4.5a5.78 5.78 0 00-1.46 5.93l.11.33a5.47 5.47 0 004.63 3.81l1.59 4.89A2.73 2.73 0 0155 45zm-10.18-4.4a1.19 1.19 0 00-1.53-.79 1.27 1.27 0 00-.76 1.59l1 3a1.21 1.21 0 001.14.85 1.07 1.07 0 00.39-.07 1.27 1.27 0 00.76-1.59zM33 21.2a1.22 1.22 0 00.78.29 1.2 1.2 0 00.93-.46 1.29 1.29 0 00-.16-1.76l-2.34-2a1.17 1.17 0 00-1.7.17 1.28 1.28 0 00.16 1.76zm5.58 4.8a1.18 1.18 0 001.71-.17 1.29 1.29 0 00-.16-1.76l-2.34-2a1.18 1.18 0 00-1.7.17 1.28 1.28 0 00.16 1.76zM25 21.39l-1.87-1.6L12 33.81l1.87 1.6zm-2.8 9.38l-5.61 7 1.86 1.6 5.61-7zm.9 12.6l11.19-14-1.86-1.59-11.19 14z"/></symbol>
    <symbol fill="currentColor" viewBox="0 0 51.32 51.32" id="z-user"><path d="M25.66 0a25.66 25.66 0 1025.66 25.66A25.69 25.69 0 0025.66 0zm0 48.11a22.36 22.36 0 01-15.92-6.64 16 16 0 0131.83 0 22.36 22.36 0 01-15.91 6.64zm-7.22-31.27a7.22 7.22 0 117.22 7.21 7.23 7.23 0 01-7.22-7.21zm25.79 21.42a19.39 19.39 0 00-12.29-13.12 10.43 10.43 0 10-12.59 0A19.06 19.06 0 007.09 38.26a22.45 22.45 0 1137.14 0z"/></symbol>
    <symbol fill="currentColor" viewBox="0 0 59.17 61.64" id="z-summary"><path d="M59.11 4.75A5.44 5.44 0 0053.81 0H13.72a5.47 5.47 0 00-5.35 5.58v35.25c-.06.45-.46 2.08-3 2.08-2.22 0-2.62-1.41-2.67-1.54a1.35 1.35 0 00-1.7-1 1.43 1.43 0 00-.92 1.77 5.1 5.1 0 005.19 3.57h11.07v14.5a1.44 1.44 0 00.84 1.32 1.4 1.4 0 00.53.11 1.36 1.36 0 001-.4l5.27-5.35 5.93 5.4a1.32 1.32 0 001.79 0l6.06-5.42 5.51 5.38a1.32 1.32 0 001.83 0l6-5.44 5.85 5.43a1.33 1.33 0 001.47.23 1.42 1.42 0 00.81-1.3v-55a1.84 1.84 0 00-.12-.42zM16.34 42.9h-5.82a5.09 5.09 0 00.58-2V5.58a2.62 2.62 0 115.24 0zM56.43 57L52 52.88a1.33 1.33 0 00-1.81 0l-5.99 5.41-5.5-5.38a1.32 1.32 0 00-1.83 0l-6.09 5.46-6-5.45a1.32 1.32 0 00-1.85 0l-3.86 3.91V5.16a1.32 1.32 0 00-.07-.39 5.85 5.85 0 00-.62-1.92h35.43a2.67 2.67 0 012.62 2.73zM39.94 10.52a1.37 1.37 0 10-2.74 0v.19h-.12a4.43 4.43 0 00-4.59 4.23v.15c0 1.36.86 2.52 2.55 3.45a1.74 1.74 0 00.36.13h.15l1.65.35v3.11h-.12c-1 0-1.86-.63-1.86-1.38a1.37 1.37 0 10-2.73 0A4.43 4.43 0 0037.08 25h.12v.32a1.37 1.37 0 102.74 0V25a4.39 4.39 0 004.31-4.22v-.15c0-.94-.45-2.31-2.6-3.48l-.12-.05-.17-.06h-.08l-1.3-.28v-3.17c.88.1 1.58.67 1.58 1.35a1.37 1.37 0 102.74 0 4.39 4.39 0 00-4.32-4.21zm-2.74 5.63l-1.05-.23c-.76-.44-.92-.78-.92-.83v-.15c0-.74.84-1.37 1.85-1.37h.12zm3.34 3.62c.75.45 1 .8 1 .87v.15a1.61 1.61 0 01-1.58 1.36v-2.5zm5.14-11a1.47 1.47 0 00-.07 2 10.82 10.82 0 012.37 10 10.42 10.42 0 01-4.72 6.4 9.68 9.68 0 01-7.69 1 10.62 10.62 0 01-7.14-12.93 10.12 10.12 0 0112.42-7.46 1.35 1.35 0 001.67-1 1.43 1.43 0 00-1-1.75 12.84 12.84 0 00-15.77 9.45 13.48 13.48 0 009.07 16.43 12.13 12.13 0 003.37.47 12.35 12.35 0 006.39-1.79 13.26 13.26 0 006-8.13 13.72 13.72 0 00-3-12.63 1.32 1.32 0 00-1.9-.07zM29.07 37.26h10.48a1.43 1.43 0 000-2.85H29.07a1.43 1.43 0 000 2.85zm17.1 0a1.43 1.43 0 000-2.85H44a1.43 1.43 0 000 2.85zm-17.1 5.56h3.16a1.43 1.43 0 000-2.86h-3.16a1.43 1.43 0 000 2.86zM49 40H37.58a1.43 1.43 0 000 2.86H49A1.43 1.43 0 0049 40zm-8.36 6H29.35a1.43 1.43 0 000 2.85h11.27a1.43 1.43 0 000-2.85zM48 46h-2.93a1.43 1.43 0 000 2.85H48A1.43 1.43 0 0048 46z"/></symbol>
    <symbol fill="currentColor" viewBox="0 0 74.79 54.99" id="z-payment"><path d="M7.52 39.17h17.29a1.51 1.51 0 000-3H7.52a1.51 1.51 0 000 3zm0 6.69H13a1.51 1.51 0 000-3H7.52a1.51 1.51 0 000 3zm39.22 1.67a6.09 6.09 0 003.43-1.07 6 6 0 003.45 1.07 6.2 6.2 0 000-12.39 6.24 6.24 0 00-3.46 1.07 6.08 6.08 0 00-3.42-1.07 6.2 6.2 0 000 12.39zm6.88-9.37a3.18 3.18 0 11-3.16 3.18 3.16 3.16 0 013.16-3.18zm-9.11.93a3.13 3.13 0 012.23-.93 3 3 0 011.41.35 6.23 6.23 0 000 5.66 3.07 3.07 0 01-1.41.35 3.18 3.18 0 01-2.23-5.43zM70.61 0H12.17A4.21 4.21 0 008 4.22V8H4.53A4.54 4.54 0 000 12.59v7.72a.07.07 0 000 .05.11.11 0 000 .05v8.83a.13.13 0 000 .1v21.09A4.54 4.54 0 004.53 55h57.76a4.55 4.55 0 004.53-4.56V47h3.79a4.14 4.14 0 003-1.23 4.24 4.24 0 001.22-3V4.22A4.2 4.2 0 0070.61 0zm-6.79 45.41v5A1.53 1.53 0 0162.29 52H4.53A1.54 1.54 0 013 50.43V30.79h60.82zm0-17.63H3v-5.92h60.82zm0-8.93H3v-6.26a1.54 1.54 0 011.53-1.54h57.76a1.53 1.53 0 011.53 1.54zm8 23.89a1.18 1.18 0 01-1.19 1.2h-3.81V12.59A4.55 4.55 0 0062.29 8H11V4.22A1.21 1.21 0 0112.17 3h58.44a1.2 1.2 0 011.19 1.22z"/></symbol>
    <symbol fill="currentColor" viewBox="0 0 55.46 55.46" id="z-less"><path d="M16.64 0A16.6 16.6 0 000 16.64v22.18a16.6 16.6 0 0016.64 16.64h22.18a16.6 16.6 0 0016.64-16.64V16.64A16.6 16.6 0 0038.82 0zm0 2.77h22.18a13.82 13.82 0 0113.86 13.87v22.18a13.82 13.82 0 01-13.86 13.87H16.64A13.82 13.82 0 012.77 38.82V16.64A13.78 13.78 0 0116.64 2.77zm.07 26.9a2.5 2.5 0 110-5H40a2.5 2.5 0 010 5z"/></symbol>
    <symbol fill="currentColor" viewBox="0 0 72.61 72.61" id="z-more"><path d="M21.78 0A21.73 21.73 0 000 21.78v29.05a21.73 21.73 0 0021.78 21.78h29a21.73 21.73 0 0021.83-21.78v-29A21.73 21.73 0 0050.82 0zm0 3.63h29A18.09 18.09 0 0169 21.78v29.05A18.09 18.09 0 0150.82 69h-29A18.09 18.09 0 013.63 50.83v-29a18 18 0 0118.15-18.2zm.09 35.22a3.27 3.27 0 010-6.54H32a1.82 1.82 0 001.81-1.82V20.33a3.27 3.27 0 016.54 0v10.16a1.82 1.82 0 001.81 1.82h10.21a3.27 3.27 0 110 6.54H42.29a1.82 1.82 0 00-1.81 1.81v10.17a3.27 3.27 0 01-6.54 0V40.66a1.81 1.81 0 00-1.81-1.81z"/></symbol>
    <symbol fill="currentColor" viewBox="0 0 28.9 48.27" id="z-dropdown"><path d="M28.44 22.11c0-.13 0-.13-.12-.13a5.49 5.49 0 00-1.22-1.9L9.34 1.69c-5-5.2-12.73 2.79-7.71 8l14.08 14.57L1.88 38.59c-5 5.2 2.69 13.2 7.71 8l17.76-18.4a5.49 5.49 0 001.09-6.08z"/></symbol>
</svg>